<?xml version='1.0' encoding='utf-8'?>
<svg xmlns:xlink="http://www.w3.org/1999/xlink" xmlns="http://www.w3.org/2000/svg" id="svg2457" version="1.1" viewBox="0 0 507.99999 285.75001" height="1080" width="1920"> <defs id="defs2451"> <linearGradient y2="138.25" x2="1058.3334" y1="402.83334" x1="555.625" gradientTransform="translate(-3147.9301,13031.536)" gradientUnits="userSpaceOnUse" id="linearGradient5242" xlink:href="#linearGradient964"/> <linearGradient id="linearGradient964"> <stop id="stop960" offset="0" style="stop-color:#f2f2f2;stop-opacity:1;"/> <stop id="stop962" offset="1" style="stop-color:#f2f2f2;stop-opacity:1"/> </linearGradient> </defs> <metadata id="metadata2454"> </metadata> <g transform="translate(0,-11.249992)" id="layer1"> <g id="g5518" transform="translate(2565.8467,-13109.853)"> <rect y="13121.103" x="-2565.8467" height="285.75" width="508" id="rect5224" style="color:#000000;clip-rule:nonzero;display:inline;overflow:visible;visibility:visible;opacity:1;isolation:auto;mix-blend-mode:normal;color-interpolation:sRGB;color-interpolation-filters:linearRGB;solid-color:#000000;solid-opacity:1;fill:url(#linearGradient5242);fill-opacity:1;fill-rule:nonzero;stroke:none;stroke-width:0.079375;stroke-linecap:round;stroke-linejoin:round;stroke-miterlimit:4;stroke-dasharray:none;stroke-dashoffset:0;stroke-opacity:1;color-rendering:auto;image-rendering:auto;shape-rendering:auto;text-rendering:auto;enable-background:accumulate"/> <path style="opacity:0.1;fill:#000000;fill-rule:evenodd;stroke:none;stroke-width:0.26458332px;stroke-linecap:butt;stroke-linejoin:miter;stroke-opacity:1" d="m -2273.633,13196.671 v 0 a 1.650132,1.650132 0 0 1 0.4791,1.161 v 132.291 a 1.650132,1.650132 0 0 1 -1.6506,1.651 h -74.0838 a 1.650132,1.650132 0 0 1 -1.1441,-0.463 l 75.5421,75.542 h 216.6436 v -85.599 z" id="path5226"/> <g id="g5504"> <g transform="translate(-3147.9301,9424.5478)" id="g5234"> <path style="color:#000000;font-style:normal;font-variant:normal;font-weight:normal;font-stretch:normal;font-size:medium;line-height:normal;font-family:sans-serif;font-variant-ligatures:normal;font-variant-position:normal;font-variant-caps:normal;font-variant-numeric:normal;font-variant-alternates:normal;font-feature-settings:normal;text-indent:0;text-align:start;text-decoration:none;text-decoration-line:none;text-decoration-style:solid;text-decoration-color:#000000;letter-spacing:normal;word-spacing:normal;text-transform:none;writing-mode:lr-tb;direction:ltr;text-orientation:mixed;dominant-baseline:auto;baseline-shift:baseline;text-anchor:start;white-space:normal;shape-padding:0;clip-rule:nonzero;display:inline;overflow:visible;visibility:visible;opacity:1;isolation:auto;mix-blend-mode:normal;color-interpolation:sRGB;color-interpolation-filters:linearRGB;solid-color:#000000;solid-opacity:1;vector-effect:none;fill:#5599ff;fill-opacity:1;fill-rule:evenodd;stroke:none;stroke-width:3.29993367;stroke-linecap:round;stroke-linejoin:round;stroke-miterlimit:4;stroke-dasharray:none;stroke-dashoffset:0;stroke-opacity:1;color-rendering:auto;image-rendering:auto;shape-rendering:auto;text-rendering:auto;enable-background:accumulate" d="m 799.04113,3771.6343 a 1.650132,1.650132 0 0 0 -1.64846,1.65 v 132.2911 a 1.650132,1.650132 0 0 0 1.64846,1.6507 h 74.08386 a 1.650132,1.650132 0 0 0 1.65055,-1.6507 v -132.2911 a 1.650132,1.650132 0 0 0 -1.65055,-1.65 z m 1.65004,3.3007 h 70.78327 v 128.992 h -70.78327 z" id="path5228"/> <path id="path5230" d="m 804.3333,3889.7014 v -100.5417 h 63.5 v 100.5417 z" style="fill:#ffffff;fill-rule:evenodd;stroke:#5599ff;stroke-width:1.32291663;stroke-linecap:butt;stroke-linejoin:round;stroke-miterlimit:4;stroke-dasharray:none;stroke-opacity:1"/> <path style="opacity:0.1;fill:#000000;fill-rule:evenodd;stroke:none;stroke-width:0.26458332px;stroke-linecap:butt;stroke-linejoin:miter;stroke-opacity:1" d="m 797.85672,3906.7208 v 0 l 0.0295,0.03 a 1.650132,1.650132 0 0 1 -0.0289,-0.031 z" id="path5232"/> </g> <g id="g5332" transform="matrix(0.27304087,0,0,0.27304087,-2192.4421,9494.2052)"> <path style="color:#000000;font-style:normal;font-variant:normal;font-weight:normal;font-stretch:normal;font-size:medium;line-height:normal;font-family:sans-serif;font-variant-ligatures:normal;font-variant-position:normal;font-variant-caps:normal;font-variant-numeric:normal;font-variant-alternates:normal;font-feature-settings:normal;text-indent:0;text-align:start;text-decoration:none;text-decoration-line:none;text-decoration-style:solid;text-decoration-color:#000000;letter-spacing:normal;word-spacing:normal;text-transform:none;writing-mode:lr-tb;direction:ltr;text-orientation:mixed;dominant-baseline:auto;baseline-shift:baseline;text-anchor:start;white-space:normal;shape-padding:0;clip-rule:nonzero;display:inline;overflow:visible;visibility:visible;opacity:1;isolation:auto;mix-blend-mode:normal;color-interpolation:sRGB;color-interpolation-filters:linearRGB;solid-color:#000000;solid-opacity:1;vector-effect:none;fill:#5599ff;fill-opacity:1;fill-rule:nonzero;stroke:none;stroke-width:94.6796875;stroke-linecap:round;stroke-linejoin:round;stroke-miterlimit:4;stroke-dasharray:none;stroke-dashoffset:0;stroke-opacity:1;color-rendering:auto;image-rendering:auto;shape-rendering:auto;text-rendering:auto;enable-background:accumulate" d="m -1657.6641,51896.443 c -8.0607,0.05 -16.1578,0.442 -24.2734,1.188 -103.8787,9.543 -194.3393,75.457 -235.2695,171.412 a 47.344573,47.344573 0 1 0 87.0859,37.148 c 27.3429,-64.1 87.4528,-107.893 156.8496,-114.269 46.1403,-4.239 91.2536,8.537 127.6465,34.633 l -47.4199,31.506 208.6738,103.449 -1.3633,-21.797 -13.1386,-210.664 -64.375,42.773 c -52.5085,-48.459 -121.9659,-75.814 -194.4161,-75.379 z" transform="scale(0.26458333)" id="path5324"/> <g style="fill:#5599ff;fill-opacity:1" id="g5330" transform="matrix(1.5779947,0,0,1.5779947,-2621.951,-446.45993)"> <path id="path5326" d="m 1345.0013,9058.634 a 7.9382937,7.9382937 0 0 0 0.2966,0.4669 c 9.6795,14.5685 26.6076,22.6704 44.0251,21.0701 17.4175,-1.6002 32.5863,-12.6505 39.4489,-28.7388 a 7.9382937,7.9382937 0 1 0 -14.6019,-6.2289 c -4.5847,10.7479 -14.6632,18.0909 -26.299,19.1599 -11.6357,1.069 -22.8836,-4.3143 -29.35,-14.0467 a 7.9382937,7.9382937 0 0 0 -13.5197,8.3175 z" style="color:#000000;font-style:normal;font-variant:normal;font-weight:normal;font-stretch:normal;font-size:medium;line-height:normal;font-family:sans-serif;font-variant-ligatures:normal;font-variant-position:normal;font-variant-caps:normal;font-variant-numeric:normal;font-variant-alternates:normal;font-feature-settings:normal;text-indent:0;text-align:start;text-decoration:none;text-decoration-line:none;text-decoration-style:solid;text-decoration-color:#000000;letter-spacing:normal;word-spacing:normal;text-transform:none;writing-mode:lr-tb;direction:ltr;text-orientation:mixed;dominant-baseline:auto;baseline-shift:baseline;text-anchor:start;white-space:normal;shape-padding:0;clip-rule:nonzero;display:inline;overflow:visible;visibility:visible;opacity:1;isolation:auto;mix-blend-mode:normal;color-interpolation:sRGB;color-interpolation-filters:linearRGB;solid-color:#000000;solid-opacity:1;vector-effect:none;fill:#5599ff;fill-opacity:1;fill-rule:nonzero;stroke:none;stroke-width:15.875;stroke-linecap:round;stroke-linejoin:round;stroke-miterlimit:4;stroke-dasharray:none;stroke-dashoffset:0;stroke-opacity:1;color-rendering:auto;image-rendering:auto;shape-rendering:auto;text-rendering:auto;enable-background:accumulate"/> <path id="path5328" transform="matrix(0.16767061,0,0,0.16767061,1661.5715,282.92866)" d="m -1921.2656,52203.537 1.3633,21.795 13.1386,210.652 194.1699,-128.996 z" style="color:#000000;font-style:normal;font-variant:normal;font-weight:normal;font-stretch:normal;font-size:medium;line-height:normal;font-family:sans-serif;font-variant-ligatures:normal;font-variant-position:normal;font-variant-caps:normal;font-variant-numeric:normal;font-variant-alternates:normal;font-feature-settings:normal;text-indent:0;text-align:start;text-decoration:none;text-decoration-line:none;text-decoration-style:solid;text-decoration-color:#000000;letter-spacing:normal;word-spacing:normal;text-transform:none;writing-mode:lr-tb;direction:ltr;text-orientation:mixed;dominant-baseline:auto;baseline-shift:baseline;text-anchor:start;white-space:normal;shape-padding:0;clip-rule:nonzero;display:inline;overflow:visible;visibility:visible;opacity:1;isolation:auto;mix-blend-mode:normal;color-interpolation:sRGB;color-interpolation-filters:linearRGB;solid-color:#000000;solid-opacity:1;vector-effect:none;fill:#5599ff;fill-opacity:1;fill-rule:evenodd;stroke:none;stroke-width:18.93593788pt;stroke-linecap:butt;stroke-linejoin:miter;stroke-miterlimit:4;stroke-dasharray:none;stroke-dashoffset:0;stroke-opacity:1;color-rendering:auto;image-rendering:auto;shape-rendering:auto;text-rendering:auto;enable-background:accumulate"/> </g> </g> </g> </g> </g> </svg>